<?xml version="1.0" encoding="UTF-8" standalone="no"?>
<svg
   xmlns:dc="http://purl.org/dc/elements/1.1/"
   xmlns:cc="http://creativecommons.org/ns#"
   xmlns:rdf="http://www.w3.org/1999/02/22-rdf-syntax-ns#"
   xmlns:svg="http://www.w3.org/2000/svg"
   xmlns="http://www.w3.org/2000/svg"
   xmlns:sodipodi="http://sodipodi.sourceforge.net/DTD/sodipodi-0.dtd"
   xmlns:inkscape="http://www.inkscape.org/namespaces/inkscape"
   width="110mm"
   height="50mm"
   viewBox="0 0 110 50"
   version="1.1"
   id="svg8"
   inkscape:version="1.0.1 (3bc2e813f5, 2020-09-07)"
   sodipodi:docname="logo.svg">
  <defs
     id="defs2">
    <rect
       x="63.122025"
       y="173.49107"
       width="74.083336"
       height="11.528274"
       id="rect865" />
  </defs>
  <sodipodi:namedview
     id="base"
     pagecolor="#ffffff"
     bordercolor="#666666"
     borderopacity="1.0"
     inkscape:pageopacity="0.0"
     inkscape:pageshadow="2"
     inkscape:zoom="0.49497475"
     inkscape:cx="712.01459"
     inkscape:cy="624.79035"
     inkscape:document-units="mm"
     inkscape:current-layer="layer1"
     inkscape:document-rotation="0"
     showgrid="false"
     inkscape:snap-text-baseline="true"
     inkscape:window-width="1920"
     inkscape:window-height="986"
     inkscape:window-x="-11"
     inkscape:window-y="-11"
     inkscape:window-maximized="1" />
  <metadata
     id="metadata5">
    <rdf:RDF>
      <cc:Work
         rdf:about="">
        <dc:format>image/svg+xml</dc:format>
        <dc:type
           rdf:resource="http://purl.org/dc/dcmitype/StillImage" />
        <dc:title></dc:title>
      </cc:Work>
    </rdf:RDF>
  </metadata>
  <g
     inkscape:label="Layer 1"
     inkscape:groupmode="layer"
     id="layer1">
    <g
       id="g884"
       transform="translate(-26.192414,-161.43079)">
      <path
         style="fill:#41b8fb;fill-opacity:0.995885;stroke:none;stroke-width:0.176389"
         d="m 42.338276,164.21834 c -0.36636,2.44474 -2.40859,4.51537 -3.924653,6.34999 -1.121304,1.35696 -2.27771,2.682 -3.377847,4.05695 -4.279989,5.34987 -9.288851,12.77955 -4.967817,19.57917 0.765228,1.2042 1.783962,2.56222 3.098094,3.175 0,-7.04268 6.860117,-12.32782 11.465279,-16.93334 1.371952,-1.37195 5.121048,-6.75832 6.890581,-3.04568 0.909109,1.90764 -2.179058,3.14499 -2.727274,4.63318 -0.709436,1.92617 0.664986,5.77603 1.057804,7.76111 0.233186,1.17758 -0.08643,2.91218 -1.509536,3.29036 -0.738011,0.19632 -1.130477,-1.03752 -1.374952,-1.52647 -0.438855,-0.87736 -1.102821,-5.09218 -2.148983,-5.23787 -0.642938,-0.0894 -1.726457,1.47479 -2.097756,1.88648 -4.859161,5.3878 -8.749101,14.19825 -1.264885,19.1636 1.142119,0.75776 2.49996,1.512 3.880556,1.65029 0.06632,-3.21663 1.971675,-6.05684 3.704343,-8.64305 5.248275,-7.83379 15.412685,-19.45817 6.695723,-28.575 -1.591381,-1.66423 -3.469746,-2.99156 -5.461177,-4.13121 -2.340328,-1.33949 -5.241749,-3.04976 -7.9375,-3.45351 m 2.248958,15.0403 c -0.703968,1.06433 -3.029655,3.44966 -4.365625,3.65815 -0.906991,0.14147 -2.354439,-0.69064 -3.175,-1.04465 -0.622653,-0.26864 -2.377546,-0.82013 -2.483326,-1.62147 -0.107298,-0.81244 1.262891,-1.82985 1.954159,-1.98084 1.872898,-0.40887 6.248224,0.41272 8.069792,0.98881 z"
         id="path38"
         sodipodi:nodetypes="cscsccccccccsscccccccsccc" />
      <text
         xml:space="preserve"
         id="text863"
         style="font-style:normal;font-weight:normal;font-size:10.5833px;line-height:1.25;font-family:sans-serif;white-space:pre;shape-inside:url(#rect865);fill:#40b8fb;fill-opacity:0.996078;stroke:none;"><tspan
           style="visibility:hidden"
           x="63.121094"
           y="194.675"><tspan
             dx="0 7.2346773"
             style="fill:#40b8fb;fill-opacity:0.996078">AA</tspan></tspan></text>
      <text
         xml:space="preserve"
         style="font-style:normal;font-weight:normal;font-size:19.6688px;line-height:1.25;font-family:sans-serif;fill:#40b8fb;fill-opacity:0.996078;stroke:none;stroke-width:0.492496;stroke-miterlimit:4;stroke-dasharray:none"
         x="60.556927"
         y="188.47359"
         id="text871"
         transform="scale(0.99083998,1.0092447)"><tspan
           id="tspan869"
           x="60.556927"
           y="188.47359"
           style="font-style:normal;font-variant:normal;font-weight:normal;font-stretch:normal;font-size:19.6688px;font-family:'Bauhaus 93';-inkscape-font-specification:'Bauhaus 93, Normal';font-variant-ligatures:normal;font-variant-caps:normal;font-variant-numeric:normal;font-variant-east-asian:normal;fill:#40b8fb;fill-opacity:0.996078;stroke-width:0.492496;stroke-miterlimit:4;stroke-dasharray:none"
           sodipodi:role="line">Aerocab</tspan></text>
      <text
         xml:space="preserve"
         style="font-style:normal;font-variant:normal;font-weight:normal;font-stretch:normal;font-size:10.5833px;line-height:1.25;font-family:Aparajita;-inkscape-font-specification:'Aparajita, Normal';font-variant-ligatures:normal;font-variant-caps:normal;font-variant-numeric:normal;font-variant-east-asian:normal;fill:#3fb8fb;fill-opacity:0.996078;stroke:none;stroke-width:0.264583"
         x="68.035713"
         y="202.02826"
         id="text875"><tspan
           sodipodi:role="line"
           id="tspan873"
           x="68.035713"
           y="202.02826"
           style="font-style:normal;font-variant:normal;font-weight:normal;font-stretch:normal;font-size:10.5833px;font-family:Aparajita;-inkscape-font-specification:'Aparajita, Normal';font-variant-ligatures:normal;font-variant-caps:normal;font-variant-numeric:normal;font-variant-east-asian:normal;fill:#3fb8fb;fill-opacity:0.996078;stroke-width:0.264583">Fly in comfort</tspan></text>
    </g>
  </g>
</svg>
